<?xml version="1.0" ?><svg viewBox="0 0 64 64" xmlns="http://www.w3.org/2000/svg"><defs><style>.cls-1{fill:none;stroke:#000;stroke-linejoin:round;stroke-width:2px;}</style></defs><title/><g data-name="Layer 19" id="Layer_19"><rect class="cls-1" height="4" width="60" x="2" y="58"/><line class="cls-1" x1="60" x2="60" y1="25" y2="58"/><line class="cls-1" x1="4" x2="4" y1="58" y2="25"/><path class="cls-1" d="M2,12H12a0,0,0,0,1,0,0v9a5,5,0,0,1-5,5H7a5,5,0,0,1-5-5V12A0,0,0,0,1,2,12Z"/><path class="cls-1" d="M22,17.59V21a5,5,0,0,1-5,5h0a5,5,0,0,1-5-5V12h9.05"/><path class="cls-1" d="M31,24a5,5,0,0,1-4,2h0a5,5,0,0,1-5-5V17.59"/><path class="cls-1" d="M42,17.59V21a5,5,0,0,1-5,5h0a5,5,0,0,1-4-2"/><path class="cls-1" d="M43,12h9v9a5,5,0,0,1-5,5h0a5,5,0,0,1-5-5V17.59"/><path class="cls-1" d="M52,12H62a0,0,0,0,1,0,0v9a5,5,0,0,1-5,5h0a5,5,0,0,1-5-5V12A0,0,0,0,1,52,12Z"/><circle class="cls-1" cx="32" cy="13" r="11"/><path class="cls-1" d="M27,8h8a0,0,0,0,1,0,0v8a2,2,0,0,1-2,2H29a2,2,0,0,1-2-2V8A0,0,0,0,1,27,8Z"/><path class="cls-1" d="M35,10h1a3,3,0,0,1,3,3h0a3,3,0,0,1-3,3H35"/><rect class="cls-1" height="22" width="28" x="8" y="30"/><polyline class="cls-1" points="42 58 42 38 56 38 56 58"/><line class="cls-1" x1="8" x2="36" y1="46" y2="46"/><line class="cls-1" x1="12" x2="18" y1="41" y2="35"/><line class="cls-1" x1="19" x2="25" y1="41" y2="35"/><line class="cls-1" x1="26" x2="32" y1="41" y2="35"/><line class="cls-1" x1="46" x2="46" y1="45" y2="51"/><rect class="cls-1" height="4" width="10" x="44" y="30"/></g></svg>