<?xml version="1.0" ?><svg id="Слой_1" style="enable-background:new 0 0 100 100;" version="1.1" viewBox="0 0 100 100" xml:space="preserve" xmlns="http://www.w3.org/2000/svg" xmlns:xlink="http://www.w3.org/1999/xlink"><path d="M82.26,58.193c-1.72-7.13-5.82-11.52-8.96-13.95c-4.35-3.37-8.79-4.76-13.09-6.11c-3.43-1.07-6.98-2.18-10.36-4.29  c-2.49-1.55-4.06-5.78-5.72-10.26c-1.1-2.93-2.22-5.97-3.65-8.37c-2.66-4.47-5.91-7.05-7.41-7.86c-0.2-0.11-0.4-0.18-0.61-0.21  c-3.88-0.52-7,0.37-9.28,2.63c-2.1,2.09-2.48,4.77-2.42,6.65c0.02,0.67,0.39,1.26,0.98,1.55c1.91,0.95,5.61,2.93,8.89,5.56  c4.6,3.68,6.07,7.43,4.93,12.55c-0.73,3.3-4.1,7.78-10.3,13.69c-5.57,5.31-8.42,11.56-8.25,18.06c0.2,7.82,4.64,13.94,6.54,16.21  c4.23,5.04,9.16,8,14.66,8.78c5.33,0.76,9.85-1.13,12.41-2.6c-8.06-1.96-16.51-10.72-18.05-23.81c-0.03-0.27,0.16-0.52,0.44-0.55  c0.28-0.04,0.52,0.16,0.55,0.44c1.69,14.34,11.87,23.28,20.34,23.34h0.13c5.51,0,8.67-2.54,10.36-4.69  c0.35-0.44,2.71-4.72,2.35-9.46c-0.02-0.28,0.19-0.52,0.47-0.54c0.27-0.02,0.51,0.19,0.53,0.46c0.39,5.13-2.16,9.66-2.56,10.16  c-0.26,0.32-0.53,0.63-0.82,0.93c2.33,0.03,4.65-0.42,6.76-1.3c4.21-1.76,6.53-4.75,7.4-5.87  C84.93,71.053,82.76,60.273,82.26,58.193z M41.09,36.073c-0.01,0.27-0.23,0.48-0.5,0.48c-0.01,0-0.01,0-0.02,0  c-0.28-0.01-0.49-0.24-0.48-0.52c0.12-2.74-0.36-5.51-1.39-8.01c-1.6-3.9-4.15-6.38-6.01-7.78c-0.22-0.16-0.27-0.48-0.1-0.7  c0.16-0.22,0.48-0.26,0.7-0.1c1.96,1.47,4.65,4.09,6.34,8.2C40.71,30.273,41.21,33.193,41.09,36.073z"/></svg>