<?xml version="1.0" ?><svg data-name="Layer 1" id="Layer_1" viewBox="0 0 100 100" xmlns="http://www.w3.org/2000/svg"><title/><path d="M81.49,21.21V32.35a6.48,6.48,0,0,1-6.11,6.56,6.19,6.19,0,0,1-4.57-1.76,6.26,6.26,0,0,1-1.91-4.53,6.3,6.3,0,0,1-12.6,0,6.3,6.3,0,1,1-12.6,0,6.3,6.3,0,0,1-12.6,0,6.27,6.27,0,0,1-6.48,6.29,6.48,6.48,0,0,1-6.11-6.56V21.21A3.21,3.21,0,0,1,21.72,18H78.28A3.21,3.21,0,0,1,81.49,21.21ZM75.12,42.92a10.16,10.16,0,0,1-6.23-2.15,10.29,10.29,0,0,1-12.59,0,10.31,10.31,0,0,1-12.6,0,10.29,10.29,0,0,1-12.59,0,10.25,10.25,0,0,1-6.27,2.14h-.47V79.18A2.83,2.83,0,0,0,27.2,82h8.61V52.33H64.19V82h8.62a2.83,2.83,0,0,0,2.83-2.82V42.9h-.52ZM58.27,58.29a.54.54,0,0,0-.54.53v4.5a.48.48,0,1,1-1,0v-4.5a.54.54,0,0,0-.54-.53h-.16a.54.54,0,0,0-.54.53v4.5a.49.49,0,0,1-1,0v-4.5a.53.53,0,0,0-.53-.53h-.17a.53.53,0,0,0-.53.53v4.5a.49.49,0,0,1-1,0v-4.5a.54.54,0,0,0-1.08,0v6.64A3.85,3.85,0,0,0,54,69.15l-.51,11.26a1.54,1.54,0,1,0,3.08,0l-.51-11.25a3.74,3.74,0,0,0,2.73-3.57V58.82A.54.54,0,0,0,58.27,58.29ZM45,58.29c-2.08,0-3.77,2.52-3.77,5.63,0,2.57,1.16,4.73,2.73,5.4l-.5,11.09a1.54,1.54,0,1,0,3.08,0L46,69.32c1.58-.67,2.73-2.83,2.73-5.4C48.72,60.81,47,58.29,45,58.29Z"/></svg>