<?xml version="1.0" ?><svg id="Icons" style="enable-background:new 0 0 32 32;" version="1.1" viewBox="0 0 32 32" xml:space="preserve" xmlns="http://www.w3.org/2000/svg" xmlns:xlink="http://www.w3.org/1999/xlink"><style type="text/css">
	.st0{fill:none;stroke:#000000;stroke-width:2;stroke-linecap:round;stroke-linejoin:round;stroke-miterlimit:10;}
</style><path class="st0" d="M22,6.5C22,4.6,20.4,3,18.5,3S15,4.6,15,6.5C15,5.7,14.3,5,13.5,5S12,5.7,12,6.5V8v3v1c0,2.2,1.8,4,4,4  s4-1.8,4-4V9h2V6.5z"/><polyline class="st0" points="20,24 12,19 12,24 20,19 20,24 12,19 "/><path class="st0" d="M12,19.9l-2.2,1.1c-1.1,0.6-1.9,1.7-2.1,3L7,29"/><path class="st0" d="M20,19.9l2.2,1.1c1.1,0.6,1.9,1.7,2.1,3l0.7,5"/></svg>