<?xml version="1.0" ?><svg viewBox="0 0 64 64" xmlns="http://www.w3.org/2000/svg"><g data-name="food delivery" id="food_delivery"><path d="M25,53A8,8,0,0,1,9,53" style="fill:none;stroke:#0a1c28;stroke-linejoin:round;stroke-width:2px"/><path d="M43,53a8,8,0,0,0,16,0" style="fill:none;stroke:#0a1c28;stroke-linejoin:round;stroke-width:2px"/><path d="M21,53a4,4,0,0,1-8,0" style="fill:none;stroke:#0a1c28;stroke-linejoin:round;stroke-width:2px"/><path d="M55,53a4,4,0,0,1-8,0" style="fill:none;stroke:#0a1c28;stroke-linejoin:round;stroke-width:2px"/><path d="M43,31a2,2,0,0,0-2,2c2.76,0,5,4,5,9,0,3.87-2.24,6-5,6H35c-3.31,0-6-2.24-6-5s2.69-5,6-5V36H16C8.82,36,3,43.16,3,52v1H43c4.42,0,8-4.92,8-11s-3.58-11-8-11" style="fill:none;stroke:#0a1c28;stroke-linecap:round;stroke-linejoin:round;stroke-width:2px"/><line style="fill:none;stroke:#0a1c28;stroke-linecap:round;stroke-linejoin:round;stroke-width:2px" x1="3" x2="16" y1="36" y2="36"/><path d="M6,53c0-6.63,4.92-12,11-12s11,5.37,11,12" style="fill:none;stroke:#0a1c28;stroke-linejoin:round;stroke-width:2px"/><path d="M41,53H61a9,9,0,0,0-9-9H51" style="fill:none;stroke:#0a1c28;stroke-linejoin:round;stroke-width:2px"/><path d="M51,23H50c-3.31,0-6,1.79-6,4s2.69,4,6,4h1" style="fill:none;stroke:#0a1c28;stroke-linejoin:round;stroke-width:2px"/><ellipse cx="51" cy="27" rx="2" ry="4" style="fill:none;stroke:#0a1c28;stroke-linejoin:round;stroke-width:2px"/><path d="M41,33V29a2,2,0,0,1,2-2h1" style="fill:none;stroke:#0a1c28;stroke-linejoin:round;stroke-width:2px"/><line style="fill:none;stroke:#0a1c28;stroke-linecap:round;stroke-linejoin:round;stroke-width:2px" x1="46" x2="39" y1="27" y2="27"/><line style="fill:none;stroke:#0a1c28;stroke-linecap:round;stroke-linejoin:round;stroke-width:2px" x1="14" x2="20" y1="49" y2="49"/><line style="fill:none;stroke:#0a1c28;stroke-linecap:round;stroke-linejoin:round;stroke-width:2px" x1="16" x2="18" y1="45" y2="45"/><path d="M12,36a2,2,0,0,1,0-4H32a2,2,0,0,1,0,4Z" style="fill:#0a1c28"/><path d="M10,29V28a10,10,0,0,1,20,0v1" style="fill:none;stroke:#0a1c28;stroke-miterlimit:10;stroke-width:2px"/><line style="fill:none;stroke:#0a1c28;stroke-linecap:round;stroke-miterlimit:10;stroke-width:2px" x1="7" x2="33" y1="29" y2="29"/><path d="M18,18V17a2,2,0,0,1,4,0v1" style="fill:none;stroke:#0a1c28;stroke-miterlimit:10;stroke-width:2px"/><line style="fill:none;stroke:#0a1c28;stroke-linecap:round;stroke-miterlimit:10;stroke-width:2px" x1="20" x2="20" y1="15" y2="13"/></g></svg>