<?xml version="1.0" ?><svg viewBox="0 0 64 64" xmlns="http://www.w3.org/2000/svg"><title/><g data-name="Layer 5" id="Layer_5"><path d="M50.94,49H51a5,5,0,0,0,5-5V23h6a1,1,0,0,0,1-1V18a1,1,0,0,0-1-1H56V15h2a1,1,0,0,0,1-1V8a1,1,0,0,0-1-1H38V2a1,1,0,0,0-1-1H27a1,1,0,0,0-1,1V7H6A1,1,0,0,0,5,8v6a1,1,0,0,0,1,1H8v2H2a1,1,0,0,0-1,1v4a1,1,0,0,0,1,1H8V44a5,5,0,0,0,5,5h.06a4.53,4.53,0,0,0,.4,1.28,4.08,4.08,0,0,0,.44.72H2a1,1,0,0,0-1,1V62a1,1,0,0,0,1,1H62a1,1,0,0,0,1-1V52a1,1,0,0,0-1-1H50.1a4.08,4.08,0,0,0,.44-.72A4.53,4.53,0,0,0,50.94,49ZM61,19v2H56V19ZM28,3h8V7H28ZM7,9H57v4H7ZM3,21V19H8v2Zm7,23V15H54V44a3,3,0,0,1-3,3h-.2a4.67,4.67,0,0,0-.52-1.14l-3.44-5.4a1,1,0,0,0-1.68,0l-3.44,5.4A4.67,4.67,0,0,0,41.2,47H36.8a4.67,4.67,0,0,0-.52-1.14l-3.44-5.4a1,1,0,0,0-1.68,0l-3.44,5.4A4.67,4.67,0,0,0,27.2,47H22.8a4.67,4.67,0,0,0-.52-1.14l-3.44-5.4a1,1,0,0,0-1.68,0l-3.44,5.4A4.67,4.67,0,0,0,13.2,47H13A3,3,0,0,1,10,44Zm38.74,5.41A2.87,2.87,0,0,1,46.42,51a3.93,3.93,0,0,1-.84,0,2.87,2.87,0,0,1-2.32-1.57,2.5,2.5,0,0,1,.14-2.47L46,42.86l2.6,4.08A2.5,2.5,0,0,1,48.74,49.41ZM29.4,46.94,32,42.86l2.6,4.08a2.5,2.5,0,0,1,.14,2.47A2.87,2.87,0,0,1,32.42,51a3.93,3.93,0,0,1-.84,0,2.87,2.87,0,0,1-2.32-1.57A2.5,2.5,0,0,1,29.4,46.94Zm-8.66,2.47A2.87,2.87,0,0,1,18.42,51a3.93,3.93,0,0,1-.84,0,2.87,2.87,0,0,1-2.32-1.57,2.5,2.5,0,0,1,.14-2.47L18,42.86l2.6,4.08A2.5,2.5,0,0,1,20.74,49.41Zm1.8.87a4.53,4.53,0,0,0,.4-1.28h4.12a4.53,4.53,0,0,0,.4,1.28,4.08,4.08,0,0,0,.44.72H22.1A4.08,4.08,0,0,0,22.54,50.28ZM61,61H3V53H61ZM36.1,51a4.08,4.08,0,0,0,.44-.72,4.53,4.53,0,0,0,.4-1.28h4.12a4.53,4.53,0,0,0,.4,1.28,4.08,4.08,0,0,0,.44.72Z"/><path d="M56,60a3,3,0,1,0-3-3A3,3,0,0,0,56,60Zm0-4a1,1,0,1,1-1,1A1,1,0,0,1,56,56Z"/><path d="M45,57a3,3,0,1,0,3-3A3,3,0,0,0,45,57Zm3-1a1,1,0,1,1-1,1A1,1,0,0,1,48,56Z"/><path d="M17,54H5a1,1,0,0,0-1,1v4a1,1,0,0,0,1,1H17a1,1,0,0,0,1-1V55A1,1,0,0,0,17,54Zm-1,4H6V56H16Z"/></g></svg>