<?xml version="1.0" ?><svg viewBox="0 0 512 512" xmlns="http://www.w3.org/2000/svg"><title/><g data-name="/ OUTLINE" id="_OUTLINE"><path d="M96,408a24,24,0,1,0,24,24A24.02718,24.02718,0,0,0,96,408Zm0,32a8,8,0,1,1,8-8A8.00917,8.00917,0,0,1,96,440Z"/><path d="M472,152H376a23.84913,23.84913,0,0,0-12.21924,3.35492,40.04178,40.04178,0,0,0-7.49658-10.38373l-1.94043-1.9414A7.94677,7.94677,0,0,1,352,137.37256v-9.6535A28.015,28.015,0,0,0,376,100V51.31348A35.31326,35.31326,0,0,0,340.68652,16h-73.373A35.31326,35.31326,0,0,0,232,51.31348V64h-8V80h32V98.335a39.80889,39.80889,0,0,0,25.14453,37.13916l9.82715,3.93067A7.96187,7.96187,0,0,1,296,146.83252v9.85413L292.68652,160H200.44434a24.299,24.299,0,0,0-3.17383-6.0332A23.74549,23.74549,0,0,0,177.80078,144H130.97949a47.49039,47.49039,0,0,0-36.48242,77.89307l13.3418,16.01025a8.005,8.005,0,0,1,1.32129,7.99414L74.46753,336.09912a25.24524,25.24524,0,0,0-10.405,3.22266L26.167,360.97656a25.19167,25.19167,0,0,0,10.512,47.01172,63.99854,63.99854,0,1,0,122.99926,30.42456A23.95,23.95,0,0,0,168.2334,440H328.51758A63.9917,63.9917,0,0,0,456,432V392.249a15.92328,15.92328,0,0,1,10.05859-14.85595l9.8252-3.93067A31.84647,31.84647,0,0,0,496,343.751V328a31.8731,31.8731,0,0,0-8.50391-21.69434A23.951,23.951,0,0,0,496,288V176A24.02718,24.02718,0,0,0,472,152ZM256,64h-8V51.31348A19.31415,19.31415,0,0,1,267.31348,32h73.373A19.31415,19.31415,0,0,1,360,51.31348V100a11.99921,11.99921,0,0,1-12.44434,11.9917C341.18359,111.76562,336,106.1709,336,99.52051A35.56091,35.56091,0,0,0,300.47949,64Zm74.70654,57.97968-19.34131,19.34149a23.867,23.867,0,0,0-14.45214-16.77185l-.18653-.07459,23.73535-19.77942A28.41537,28.41537,0,0,0,330.70654,121.97968Zm-49.90869-5.05817A23.87508,23.87508,0,0,1,272,98.335V80h28.47949a19.48023,19.48023,0,0,1,15.45459,7.64142ZM200.43335,176H276.687l-8.97021,8.97021A23.84779,23.84779,0,0,1,250.74512,192H195.09985ZM192,208h58.74512a39.74371,39.74371,0,0,0,28.28515-11.71582l57.04785-57.0481a23.81232,23.81232,0,0,0,6.95118,15.10669l1.9414,1.9419A23.83889,23.83889,0,0,1,352,173.25488V232H304V219.31433l21.65723-21.65759-11.31446-11.31348-30.626,30.627A23.84779,23.84779,0,0,1,266.74512,224H192Zm10.707,184H192.2334a8.0177,8.0177,0,0,1-6.50977-3.3501L155.6582,346.55615a25.2081,25.2081,0,0,0-9.42163-7.96679L179.09961,240h87.64551A39.72789,39.72789,0,0,0,288,233.88867V256a8.00917,8.00917,0,0,1-8,8h-8a40.04552,40.04552,0,0,0-40,40v48h-4a27.991,27.991,0,0,0-25.293,40ZM168,224a8,8,0,0,1,0-16h8v16Zm60,144h44v12a12.01343,12.01343,0,0,1-12,12H228a12,12,0,0,1,0-24Zm20-16V304a24.0275,24.0275,0,0,1,24-24h8a24.0275,24.0275,0,0,0,24-24v-8h48v40a8.00917,8.00917,0,0,1-8,8H304a32.03635,32.03635,0,0,0-32,32v24ZM149.76636,160h28.03442a8.00042,8.00042,0,0,1,7.58984,10.52979L178.23364,192H168a23.99757,23.99757,0,0,0-5.54858,47.34546l-19.948,59.84412-26.50366-26.50379,8.094-21.04419a24.01916,24.01916,0,0,0-3.96289-23.981l-8.69531-10.43408,8.28711-4.14355a39.74094,39.74094,0,0,0,20.05859-23.12793Zm-47.65064,43.99774A31.45649,31.45649,0,0,1,130.97949,160h1.92066l-8.29859,24.89551a23.83944,23.83944,0,0,1-12.03515,13.87695Zm7.59864,85.03046,27.13232,27.13244L130.2334,336H91.64819ZM96,480a47.98382,47.98382,0,0,1-32.15063-83.61841l16.25219-10.83471A9.18641,9.18641,0,0,1,85.21094,384h25.93261a9.23149,9.23149,0,0,1,7.49512,3.85693L142.907,421.834A47.98281,47.98281,0,0,1,96,480Zm296,0a48,48,0,1,1,48-48A48.05405,48.05405,0,0,1,392,480Zm77.94141-121.39307-9.8252,3.93067a31.828,31.828,0,0,0-20.02588,27.302A63.943,63.943,0,0,0,328.51758,424H168.2334a8.0177,8.0177,0,0,1-6.50977-3.3501l-3.99292-5.59045-.01294-.05017-.019.00525L131.6582,378.55615A25.26325,25.26325,0,0,0,111.14355,368H85.21094a25.13081,25.13081,0,0,0-13.98438,4.23438L54.481,383.39819l-.05127-.05981c-.136.11633-.26221.24145-.39722.35876L43.78418,390.5293a9.21073,9.21073,0,0,1-13.34766-3.54492,9.21516,9.21516,0,0,1,3.668-12.11622L72,353.21387A9.22745,9.22745,0,0,1,76.57031,352h58.57324a9.23149,9.23149,0,0,1,7.49512,3.85693L172.7041,397.9502A24.04994,24.04994,0,0,0,192.2334,408H260a28.03146,28.03146,0,0,0,28-28V344h191.998A15.922,15.922,0,0,1,469.94141,358.60693ZM288,328a16.01833,16.01833,0,0,1,16-16H464a16.01833,16.01833,0,0,1,16,16Zm192-40a8.00917,8.00917,0,0,1-8,8H376a8.00917,8.00917,0,0,1-8-8V200H480Zm0-104H368v-8a8.00917,8.00917,0,0,1,8-8h96a8.00917,8.00917,0,0,1,8,8Z"/><rect height="16" width="64" x="400" y="112"/><rect height="16" width="64" x="416" y="80"/><rect height="16" width="48" x="448" y="48"/><path d="M392,408a24,24,0,1,0,24,24A24.02718,24.02718,0,0,0,392,408Zm0,32a8,8,0,1,1,8-8A8.00917,8.00917,0,0,1,392,440Z"/><rect height="16" width="16" x="328" y="48"/><path d="M464,264a40.068,40.068,0,0,0-32-39.19507V216H416v8.80493A40.068,40.068,0,0,0,384,264v16h80Zm-64,0a24,24,0,0,1,48,0Z"/></g></svg>