<?xml version="1.0" ?><svg data-name="Layer 29" id="Layer_29" viewBox="0 0 100 100" xmlns="http://www.w3.org/2000/svg"><title/><path d="M89,32H80V30H20v2H11v6l9,7.16V68A13,13,0,0,0,32,80.93V86h7V82H61v4h7V80.93A13,13,0,0,0,80,68V45.16L89,38ZM13,37V34h7v8.64ZM37,84H34V82h3Zm29,0H63V82h3ZM78,68c0,6.07-5.31,12-11.37,12H33.38C27.31,80,22,74.07,22,68V32H78Zm9-31-7,5.63V34h7ZM62,50.5A2.5,2.5,0,0,0,59.5,48h-20A2.5,2.5,0,0,0,37,50.5v24A2.5,2.5,0,0,0,39.5,77h20A2.5,2.5,0,0,0,62,74.5Zm-2,24a.5.5,0,0,1-.5.5h-20a.5.5,0,0,1-.5-.5v-24a.5.5,0,0,1,.5-.5h20a.5.5,0,0,1,.5.5ZM59,63H41V73H59Zm-2,2v2H43V65ZM43,71V69H57v2Zm2.46-11.58A3.46,3.46,0,1,0,42,56,3.46,3.46,0,0,0,45.46,59.42Zm0-4.92A1.46,1.46,0,1,1,44,56,1.46,1.46,0,0,1,45.46,54.5Zm9.08,4.92A3.46,3.46,0,1,0,51.08,56,3.46,3.46,0,0,0,54.54,59.42Zm0-4.92A1.46,1.46,0,1,1,53.08,56,1.46,1.46,0,0,1,54.54,54.5ZM80,27.71C80,24.83,78,20,71.79,20H58V15H42v5H27.83C22,20,20.15,25.25,20,28.12l-.05.88H80ZM44,17H56v3H44ZM22.14,27c.35-2,1.57-5,5.69-5h44c4.38,0,5.47,3,5.74,5Z"/></svg>