<?xml version="1.0" ?><svg id="Icons" style="enable-background:new 0 0 32 32;" version="1.1" viewBox="0 0 32 32" xml:space="preserve" xmlns="http://www.w3.org/2000/svg" xmlns:xlink="http://www.w3.org/1999/xlink"><style type="text/css">
	.st0{fill:none;stroke:#000000;stroke-width:2;stroke-linecap:round;stroke-linejoin:round;stroke-miterlimit:10;}
</style><path class="st0" d="M14,6.5C14,4.6,12.4,3,10.5,3S7,4.6,7,6.5C7,5.7,6.3,5,5.5,5S4,5.7,4,6.5V8v3v1c0,2.2,1.8,4,4,4s4-1.8,4-4V9h2  V6.5z"/><line class="st0" x1="30" x2="17" y1="20" y2="20"/><path class="st0" d="M18,20c0-3.3,2.5-6,5.5-6s5.5,2.7,5.5,6"/><polyline class="st0" points="12,24 4,19 4,24 12,19 12,24 4,19 "/><path class="st0" d="M21,30v-6l5-4h-5.4c-0.9,0-1.8,0.7-2,1.6L17,29l-0.7-5c-0.2-1.3-1-2.4-2.1-3L12,19.9"/><circle class="st0" cx="23.5" cy="12.5" r="1.5"/></svg>