<?xml version="1.0" ?><svg id="Layer_1_1_" style="enable-background:new 0 0 64 64;" version="1.1" viewBox="0 0 64 64" xml:space="preserve" xmlns="http://www.w3.org/2000/svg" xmlns:xlink="http://www.w3.org/1999/xlink"><g/><path d="M59.146,41h-2.414C58.203,38.974,59,36.557,59,34c0-2.181-0.594-4.222-1.615-5.986c2.405-1.488,4.117-3.939,4.602-6.849  l-1.973-0.329c-0.394,2.361-1.793,4.348-3.76,5.533C54.051,23.702,50.721,22,47,22c-1.993,0-3.941,0.498-5.689,1.444  c-1.909-2.348-4.686-3.956-7.838-4.344c0.56-1.368,1.593-2.515,2.974-3.206l-0.895-1.789c-2.052,1.026-3.528,2.814-4.178,4.926  c-3.499,0.182-6.607,1.856-8.686,4.412C20.941,22.498,18.993,22,17,22c-2.4,0-4.633,0.716-6.511,1.934C8.222,22.677,5.664,22,3,22v2  c2.027,0,3.979,0.459,5.758,1.301C6.449,27.49,5,30.576,5,34c0,2.557,0.797,4.974,2.268,7H4.854C3.28,41,2,42.28,2,43.854v0.292  C2,45.72,3.28,47,4.854,47c0.326,0,0.619,0.181,0.764,0.472l2.487,4.975C8.275,52.786,8.621,53,9,53h46  c0.379,0,0.725-0.214,0.895-0.553l2.487-4.975C58.527,47.181,58.82,47,59.146,47C60.72,47,62,45.72,62,44.146v-0.292  C62,42.28,60.72,41,59.146,41z M42.448,25.103C43.856,24.379,45.412,24,47,24c2.888,0,5.486,1.238,7.313,3.202  c-0.157,0.045-0.307,0.105-0.468,0.141L52,27.753V26h-2v3c0,0.265,0.105,0.52,0.293,0.707l2,2l1.414-1.414l-0.712-0.712l1.284-0.285  c0.451-0.1,0.884-0.239,1.308-0.395C56.478,30.396,57,32.136,57,34c0,2.646-1.017,5.116-2.873,7H39.881  c-0.178-0.179-0.346-0.361-0.504-0.544c0.03-0.024,0.056-0.052,0.087-0.076c0.262-0.209,0.513-0.431,0.757-0.661  c0.075-0.07,0.155-0.135,0.227-0.207c0.291-0.288,0.567-0.591,0.827-0.908c0.114-0.139,0.214-0.287,0.322-0.43  c0.142-0.189,0.285-0.377,0.415-0.575c0.113-0.171,0.215-0.348,0.319-0.524c0.11-0.186,0.218-0.372,0.318-0.565  c0.093-0.18,0.18-0.363,0.264-0.547c0.094-0.205,0.181-0.412,0.263-0.623c0.07-0.179,0.138-0.359,0.199-0.541  c0.078-0.233,0.145-0.471,0.209-0.711c0.045-0.17,0.094-0.338,0.131-0.51c0.061-0.277,0.105-0.56,0.146-0.844  c0.021-0.142,0.049-0.282,0.065-0.425C43.972,31.879,44,31.443,44,31c0-0.478-0.036-0.947-0.091-1.411  c-0.017-0.142-0.043-0.282-0.065-0.423c-0.051-0.33-0.113-0.656-0.191-0.976c-0.036-0.15-0.073-0.299-0.115-0.447  c-0.098-0.347-0.213-0.686-0.34-1.019c-0.038-0.1-0.069-0.201-0.11-0.3c-0.177-0.428-0.379-0.842-0.603-1.243  C42.472,25.155,42.463,25.128,42.448,25.103z M31.029,21.049C31.022,21.191,31,21.329,31,21.472v1.14l-1.684-0.561l-0.633,1.897l3,1  C31.787,24.983,31.893,25,32,25s0.213-0.017,0.316-0.051l3-1l-0.633-1.897L33,22.612v-1.14c0-0.142,0.02-0.279,0.029-0.419  c2.997,0.308,5.603,1.945,7.223,4.31c0.054,0.078,0.101,0.159,0.152,0.239c0.109,0.168,0.214,0.339,0.312,0.514  c0.053,0.095,0.104,0.191,0.154,0.287c0.092,0.176,0.178,0.355,0.259,0.537c0.039,0.088,0.08,0.176,0.117,0.265  c0.111,0.27,0.215,0.544,0.302,0.825c0.001,0.003,0.002,0.007,0.003,0.01c0.087,0.279,0.158,0.565,0.22,0.853  c0.019,0.087,0.034,0.174,0.05,0.261c0.041,0.218,0.075,0.438,0.101,0.66c0.011,0.09,0.022,0.179,0.031,0.269  C41.981,30.385,42,30.69,42,31c0,0.391-0.029,0.777-0.073,1.159c-0.014,0.119-0.036,0.236-0.054,0.354  c-0.04,0.263-0.088,0.523-0.149,0.78c-0.031,0.133-0.065,0.265-0.102,0.396c-0.068,0.245-0.148,0.485-0.234,0.723  c-0.044,0.121-0.084,0.244-0.133,0.363c-0.132,0.324-0.279,0.642-0.445,0.949c-0.041,0.075-0.087,0.147-0.129,0.221  c-0.149,0.261-0.308,0.516-0.481,0.763c-0.076,0.109-0.159,0.214-0.239,0.32c-0.155,0.203-0.316,0.402-0.487,0.594  c-0.081,0.091-0.161,0.182-0.245,0.269c-0.239,0.25-0.488,0.491-0.754,0.717c-0.019,0.016-0.036,0.034-0.055,0.05  c-0.31,0.259-0.639,0.501-0.984,0.725C35.869,40.402,34.004,41,32,41s-3.869-0.598-5.435-1.618  c-0.345-0.224-0.674-0.466-0.984-0.725c-0.019-0.016-0.036-0.034-0.055-0.05c-0.266-0.226-0.516-0.467-0.755-0.717  c-0.083-0.088-0.164-0.178-0.244-0.268c-0.171-0.192-0.333-0.391-0.488-0.595c-0.08-0.106-0.162-0.21-0.238-0.319  c-0.173-0.247-0.332-0.503-0.482-0.764c-0.042-0.074-0.089-0.145-0.129-0.22c-0.166-0.308-0.312-0.625-0.445-0.949  c-0.049-0.119-0.089-0.241-0.133-0.362c-0.087-0.238-0.166-0.479-0.235-0.724c-0.036-0.13-0.07-0.262-0.102-0.394  c-0.061-0.257-0.109-0.518-0.149-0.781c-0.018-0.118-0.04-0.234-0.054-0.353C22.029,31.777,22,31.391,22,31  c0-0.31,0.019-0.615,0.046-0.917c0.008-0.09,0.02-0.179,0.031-0.269c0.026-0.222,0.06-0.443,0.101-0.66  c0.016-0.087,0.031-0.175,0.05-0.261c0.062-0.289,0.133-0.574,0.22-0.853c0.001-0.003,0.002-0.007,0.003-0.01  c0.088-0.281,0.191-0.555,0.302-0.825c0.037-0.089,0.078-0.177,0.117-0.265c0.081-0.182,0.167-0.361,0.259-0.537  c0.05-0.096,0.1-0.192,0.154-0.287c0.098-0.175,0.204-0.345,0.312-0.514c0.051-0.079,0.099-0.161,0.152-0.239  C25.378,22.983,28.008,21.342,31.029,21.049z M7,34c0-3.074,1.396-5.826,3.586-7.662c0.538,0.368,1.047,0.785,1.534,1.234  l-1.436,0.479l0.633,1.897l3-1c0.298-0.1,0.533-0.334,0.632-0.632l1-3l-1.897-0.633l-0.497,1.493  c-0.388-0.363-0.791-0.702-1.208-1.02C13.737,24.421,15.319,24,17,24c1.588,0,3.144,0.379,4.552,1.103  c-0.014,0.025-0.024,0.053-0.038,0.078c-0.224,0.401-0.425,0.815-0.603,1.243c-0.041,0.099-0.072,0.2-0.11,0.3  c-0.128,0.333-0.242,0.672-0.34,1.019c-0.042,0.148-0.079,0.297-0.115,0.447c-0.077,0.321-0.14,0.646-0.191,0.976  c-0.022,0.141-0.048,0.281-0.065,0.423C20.036,30.053,20,30.522,20,31c0,0.443,0.028,0.879,0.075,1.309  c0.016,0.143,0.044,0.283,0.065,0.425c0.041,0.284,0.085,0.567,0.146,0.844c0.038,0.172,0.086,0.34,0.131,0.51  c0.064,0.239,0.13,0.477,0.209,0.711c0.061,0.183,0.129,0.362,0.199,0.541c0.082,0.211,0.169,0.418,0.263,0.623  c0.084,0.185,0.171,0.367,0.264,0.547c0.1,0.192,0.208,0.379,0.318,0.565c0.104,0.176,0.206,0.353,0.319,0.524  c0.131,0.198,0.273,0.386,0.415,0.575c0.108,0.143,0.208,0.292,0.322,0.43c0.26,0.317,0.536,0.619,0.827,0.908  c0.073,0.072,0.153,0.137,0.227,0.207c0.244,0.23,0.495,0.452,0.757,0.661c0.03,0.024,0.056,0.052,0.087,0.076  c-0.158,0.184-0.327,0.365-0.504,0.544H9.873C8.017,39.116,7,36.646,7,34z M60,44.146C60,44.617,59.617,45,59.146,45H49v2h7.382  l-2,4H9.618l-2.211-4.423C6.92,45.604,5.941,45,4.854,45C4.383,45,4,44.617,4,44.146v-0.292C4,43.383,4.383,43,4.854,43h4.612  h15.059h14.95h15.059h4.612C59.617,43,60,43.383,60,43.854V44.146z"/><rect height="2" width="32" x="10" y="45"/><path d="M13,12c0,5.514,4.486,10,10,10c0.552,0,1-0.448,1-1c0-5.514-4.486-10-10-10C13.448,11,13,11.448,13,12z M21.929,19.929  c-3.556-0.478-6.379-3.301-6.857-6.857C18.627,13.549,21.451,16.373,21.929,19.929z"/><path d="M42,13c0,3.86,3.14,7,7,7c0.552,0,1-0.448,1-1c0-3.86-3.14-7-7-7C42.448,12,42,12.448,42,13z M47.872,17.872  c-1.853-0.429-3.314-1.891-3.743-3.743C45.981,14.557,47.443,16.019,47.872,17.872z"/><path d="M61,11c-5.514,0-10,4.486-10,10c0,0.552,0.448,1,1,1c5.514,0,10-4.486,10-10C62,11.448,61.552,11,61,11z M53.071,19.929  c0.478-3.556,3.301-6.379,6.857-6.857C59.451,16.627,56.627,19.451,53.071,19.929z"/></svg>