<?xml version="1.0" ?><svg style="enable-background:new 0 0 512 512;" version="1.1" viewBox="0 0 512 512" xml:space="preserve" xmlns="http://www.w3.org/2000/svg" xmlns:xlink="http://www.w3.org/1999/xlink"><style type="text/css">
	.st0{fill:#333333;}
</style><g id="Layer_1"/><g id="Layer_2"><g><path class="st0" d="M411.23,27.5h-1.93c-63.65,0-115.43,51.78-115.43,115.43V282.2c0,21.35,17.37,38.72,38.72,38.72h8v136.42    c0,8.84,7.16,16,16,16h54.64c8.84,0,16-7.16,16-16V43.5C427.23,34.66,420.07,27.5,411.23,27.5z M395.23,441.34h-22.64V304.92    c0-8.84-7.16-16-16-16h-24c-3.71,0-6.72-3.02-6.72-6.72V142.93c0-41.21,30.03-75.54,69.36-82.24V441.34z"/><path class="st0" d="M229.81,27.5c-8.84,0-16,7.16-16,16v115.2h-32.52V43.5c0-8.84-7.16-16-16-16s-16,7.16-16,16v115.2h-32.52    V43.5c0-8.84-7.16-16-16-16s-16,7.16-16,16v131.2v31.15c0,27.21,14.23,51.68,37.09,65.16l-10.42,155.92    c-0.99,14.85,4.27,29.6,14.44,40.47s24.53,17.1,39.42,17.1c14.88,0,29.25-6.23,39.42-17.1s15.43-25.62,14.44-40.47l-10.42-155.91    c22.86-13.48,37.09-37.95,37.09-65.16V174.7V43.5C245.81,34.66,238.64,27.5,229.81,27.5z M213.81,205.85    c0,18.06-10.86,34.03-27.66,40.68c-6.47,2.56-10.54,9-10.07,15.94l11.14,166.58c0.41,6.13-1.68,11.98-5.88,16.47    c-4.2,4.49-9.9,6.96-16.05,6.96c-6.15,0-11.85-2.47-16.05-6.96c-4.2-4.49-6.29-10.34-5.88-16.48l11.14-166.58    c0.46-6.94-3.61-13.38-10.07-15.94c-16.8-6.65-27.66-22.62-27.66-40.68V190.7h97.04V205.85z"/></g></g></svg>