<?xml version="1.0" ?><svg viewBox="0 0 64 64" xmlns="http://www.w3.org/2000/svg"><g id="outline"><path d="M61.8369,36.4746a1.0009,1.0009,0,0,0-1.2431-.8682,46.3877,46.3877,0,0,0-6.4527,2.2569l1.9849-17.752a.9988.9988,0,0,0-.5841-1.0233l-2.3749-2.85A8.9769,8.9769,0,0,0,46.2529,13H41V10a4.0042,4.0042,0,0,0-4-4H27a4.0042,4.0042,0,0,0-4,4v3H17.7471a8.9769,8.9769,0,0,0-6.9141,3.2383l-2.3749,2.85a.9988.9988,0,0,0-.5841,1.0233l1.9849,17.752a46.3936,46.3936,0,0,0-6.4526-2.2569,1.0009,1.0009,0,0,0-1.2432.8682c-.0444.4414-1.0523,10.8574,2.1963,15.5068a13.0153,13.0153,0,0,0,6.0566,4.8545,8.53,8.53,0,0,0,2.9028.54,6.8438,6.8438,0,0,0,.7465-.0526A.99.99,0,0,0,15,58H49a.99.99,0,0,0,.9347-.6766,6.8438,6.8438,0,0,0,.7465.0526,8.5541,8.5541,0,0,0,2.9028-.54,13.0153,13.0153,0,0,0,6.0566-4.8545C62.8892,47.332,61.8813,36.916,61.8369,36.4746ZM25,10a2.0023,2.0023,0,0,1,2-2H37a2.0023,2.0023,0,0,1,2,2v3H37V10H27v3H25Zm10,3H29V12h6ZM12.3691,17.52A6.9806,6.9806,0,0,1,17.7471,15H46.2529a6.9806,6.9806,0,0,1,5.378,2.52L52.8647,19H11.1353Zm-.3969,21.2481L9.9858,21H54.0142l-2,17.8851a14.8015,14.8015,0,0,0-5.2257,4.1188,13.0126,13.0126,0,0,0-2.4737,7.3555,7.0881,7.0881,0,0,0,2.3625,5.5985c.0163.0149.0349.0275.0514.0421H36.001a11.9,11.9,0,0,0,3.8384-9.2c0-5.6728-6.7915-13.6338-7.0806-13.97a1.034,1.034,0,0,0-1.5166,0c-.2891.3359-7.0806,8.2969-7.0806,13.97A11.9008,11.9008,0,0,0,28,56H17.2712c.0165-.0146.0351-.0272.0514-.0421a7.0881,7.0881,0,0,0,2.3625-5.5985,13.0126,13.0126,0,0,0-2.4737-7.3555,14.8,14.8,0,0,0-5.2251-4.1184A1.029,1.029,0,0,0,11.9722,38.7676ZM53.1133,52.6094c-1.3867,1.9834-3.6279,2.9131-4.8916,2.03a2.4121,2.4121,0,0,1-.8858-2.0546,5.7565,5.7565,0,0,1,1.11-3.2373c.9932-1.4219,3.8442-2.5918,5.707-3.1983C54.2241,48.1074,54.1064,51.1865,53.1133,52.6094Zm-23.96-1.5576c0-1.7344,1.667-4.3262,2.8467-5.89,1.18,1.5635,2.8467,4.1553,2.8467,5.89,0,2.4209-1.3037,4.4658-2.8467,4.4658S29.1538,53.4727,29.1538,51.0518Zm3.605-8.1436a1.034,1.034,0,0,0-1.5166,0c-.4185.4863-4.0884,4.8486-4.0884,8.1436,0,.2211.0085.4392.024.654A11.8616,11.8616,0,0,1,26.1616,46.8c0-3.91,4.105-9.5322,5.8389-11.7334C33.7344,37.2676,37.8394,42.89,37.8394,46.8a11.8616,11.8616,0,0,1-1.0162,4.906c.0155-.2148.024-.4329.024-.654C36.8472,47.7568,33.1772,43.3945,32.7588,42.9082ZM15.7783,54.64c-1.2646.8848-3.5054-.0458-4.8916-2.03-.9931-1.4229-1.1108-4.503-1.0395-6.461,1.8618.6055,4.7114,1.7745,5.707,3.1993a5.7565,5.7565,0,0,1,1.11,3.2373A2.4121,2.4121,0,0,1,15.7783,54.64ZM5.999,50.8369C3.76,47.6309,3.9043,40.6709,4.0659,37.874c2.6817.8106,9.2666,3.0694,11.5059,6.2744A11.72,11.72,0,0,1,17.55,48.7972c-.1168-.1989-.222-.4021-.3563-.5941C15.3071,45.501,9.8,44.0273,9.1782,43.8682a1.0008,1.0008,0,0,0-1.2431.8681c-.0645.6387-.5747,6.3164,1.312,9.0176.1277.1828.2658.35.4027.5183A11.7318,11.7318,0,0,1,5.999,50.8369Zm52.002,0A11.7318,11.7318,0,0,1,54.35,54.2722c.1369-.1686.275-.3355.4027-.5183,1.8867-2.7012,1.3765-8.3789,1.312-9.0176a1.0008,1.0008,0,0,0-1.2431-.8681c-.6216.1591-6.1289,1.6328-8.0156,4.3349-.1343.192-.2395.3952-.3563.5941a11.72,11.72,0,0,1,1.9783-4.6488c2.2393-3.205,8.8242-5.4638,11.5059-6.2744C60.0957,40.6709,60.24,47.6309,58.001,50.8369Z"/><path d="M45,25h6a1,1,0,0,0,0-2H45a1,1,0,0,0,0,2Z"/><path d="M51,26H46a1,1,0,0,0,0,2h5a1,1,0,0,0,0-2Z"/></g></svg>