<?xml version="1.0" ?><svg id="Icons" style="enable-background:new 0 0 32 32;" version="1.1" viewBox="0 0 32 32" xml:space="preserve" xmlns="http://www.w3.org/2000/svg" xmlns:xlink="http://www.w3.org/1999/xlink"><style type="text/css">
	.st0{fill:none;stroke:#000000;stroke-width:2;stroke-linecap:round;stroke-linejoin:round;stroke-miterlimit:10;}
</style><path d="M22.3,8.1c-1.8-0.3-3.5,0.1-5,1.1c-0.1,0.1-0.2,0.1-0.3,0.1c-0.1-0.5-0.2-1-0.3-1.4c0.5,0.1,1,0.2,1.5,0.2  c0.5,0,0.9-0.1,1.4-0.2c0,0,0,0,0,0c2.1-0.8,3-3.4,3-3.7c0.1-0.4,0-0.9-0.4-1.1c-0.3-0.2-2.6-1.6-4.7-0.7c-1.2,0.4-2,1.4-2.4,2.3  c-0.6-0.8-1.2-1.5-2-2.1l-0.4-0.3c-0.4-0.3-1.1-0.2-1.4,0.2c-0.3,0.4-0.2,1.1,0.2,1.4l0.4,0.3c1.7,1.2,2.8,3.1,3.1,5.1  c0,0-0.1,0-0.1-0.1c-1.5-1-3.3-1.3-5-1.1c-4.3,0.7-7.3,5.1-6.6,9.8C3.5,21.4,6,26.5,9,28.8c1,0.7,2,1.1,3,1.1c0.2,0,0.4,0,0.6,0  c0.6-0.1,1.3-0.4,1.8-0.8c0.9-0.7,2.3-0.7,3.2,0c0.6,0.4,1.2,0.7,1.8,0.8c1.2,0.2,2.4-0.2,3.6-1.1c3-2.2,5.5-7.4,5.9-10.9  C29.5,13.2,26.5,8.8,22.3,8.1z"/></svg>