<?xml version="1.0" ?><svg data-name="Layer 1" id="Layer_1" viewBox="0 0 64 64" xmlns="http://www.w3.org/2000/svg"><path d="M32,0C18.3179,0,8,9.8877,8,23,8,45.2314,30.4287,63.04,31.3838,63.7876a1,1,0,0,0,1.2324,0C33.5713,63.04,56,45.2314,56,23,56,9.8877,45.6821,0,32,0Zm0,61.7056C28.3716,58.6543,10,42.2476,10,23,10,11.0278,19.458,2,32,2s22,9.0278,22,21C54,42.2476,35.6284,58.6543,32,61.7056ZM32,9A15,15,0,1,0,47,24,15.017,15.017,0,0,0,32,9Zm0,28A13,13,0,1,1,45,24,13.0144,13.0144,0,0,1,32,37Zm1-20.9408V15a1,1,0,0,0-2,0v1.0592c-4.5758.5164-8,4.4886-8,7.9408H22a1,1,0,0,0,0,2H42a1,1,0,0,0,0-2H41C41,20.5478,37.5758,16.5756,33,16.0592ZM25,24c0-2.7178,3.1226-6,7-6s7,3.2822,7,6Z"/></svg>