<?xml version="1.0" ?><svg viewBox="0 0 225.29 284.03" xmlns="http://www.w3.org/2000/svg"><title/><g data-name="Capa 2" id="Capa_2"><g data-name="Capa 1" id="Capa_1-2"><path d="M220.79,167H4.79a4.5,4.5,0,0,0-4.5,4.5,112.5,112.5,0,0,0,225,0A4.49,4.49,0,0,0,220.79,167Zm-4.59,9a103.82,103.82,0,0,1-3,20.85H12.44a103.82,103.82,0,0,1-3-20.85ZM112.79,275a103.7,103.7,0,0,1-99.26-74.15H212.06A103.7,103.7,0,0,1,112.79,275Z"/><path d="M78.76,257.76a2,2,0,0,0,.79.16,2,2,0,0,0,.79-3.84A75.74,75.74,0,0,1,53,234a2,2,0,0,0-3,2.61A79.77,79.77,0,0,0,78.76,257.76Z"/><path d="M22.45,56a26.75,26.75,0,0,0-5.94,8.26c-3.06,6.8-2.77,14.41.86,22.62,7.58,17.17,33.9,46.6,48,58.53a13.93,13.93,0,0,0,9,3.34,14.09,14.09,0,0,0,5.69-1.21,13.94,13.94,0,0,0,8.35-12.32c.67-18.45-3.35-57.72-10.93-74.89-3.63-8.22-9.06-13.56-16.15-15.87a28.24,28.24,0,0,0-13.49-.77c3.59-7.92,4.39-15.4,2.37-22.32C45.94,6.69,30.56.56,29.91.3a4.51,4.51,0,0,0-6.05,5.09l7,34.45L7.73,20A4.49,4.49,0,0,0,.36,22.66c-.11.63-2.55,15.45,7,25.5A27.17,27.17,0,0,0,22.45,56Zm36.11-3c4.55,1.49,8.15,5.17,10.7,11a52.26,52.26,0,0,1,2,5.63l-17,7.62A2,2,0,0,0,55.15,81a2,2,0,0,0,.82-.18l16.45-7.38c4.56,17.31,7.6,45.37,7,61.41a5,5,0,0,1-8.26,3.65c-6.85-5.81-15.74-15-23.93-24.6l15.46-7.13A2,2,0,0,0,61,103.15l-16.46,7.58A203.39,203.39,0,0,1,30.18,91.45l8.57-4.57a2,2,0,0,0-1.88-3.53L28.1,88a48,48,0,0,1-2.5-4.81c-2.54-5.77-2.85-10.9-.9-15.25C28.24,60,38.11,56.44,39.11,56.09l.13,0,.26-.1.19-.08.3-.16.06,0,.09,0C41.12,55.11,50.41,50.32,58.56,53Zm-17-29.11c1.35,4.64.79,9.84-1.69,15.53L34.73,13.75A21.56,21.56,0,0,1,41.59,23.87ZM25.81,47.41c-5.15-.68-9.14-2.48-11.91-5.39a17.74,17.74,0,0,1-4.29-8.53Z"/><path d="M145.18,131.24c-.1.22-.2.44-.29.66a13.14,13.14,0,0,0,.64,10.94,16.08,16.08,0,0,0,8.29,7.43,16.53,16.53,0,0,0,6.2,1.22A14,14,0,0,0,172.17,145h.05c16,0,31.38-11.15,38.27-28.13,5.51-13.6,4.48-28.79-2.44-40a13.45,13.45,0,0,0,2.82-4.32c3.08-7.59-1.3-16.55-9.75-20s-17.84,0-20.91,7.55c-.07.17-.14.34-.2.51h-.58c-15.89,0-31.48,11.18-38.35,28.14C135.08,103.55,136.74,119.82,145.18,131.24Zm4.24-39.11c5.5-13.56,17.68-22.52,30-22.52a24,24,0,0,1,3.69.28,4.52,4.52,0,0,0,3.65-1.08,4.47,4.47,0,0,0,1.52-3.49,4.58,4.58,0,0,1,.32-1.83c1.19-2.94,5.4-4.12,9.19-2.58s6,5.31,4.79,8.25a5,5,0,0,1-2.6,2.6,4.51,4.51,0,0,0-1.6,6.93c7.28,8.91,8.77,22.58,3.82,34.8C196.64,127.07,184.6,136,172.24,136a24.38,24.38,0,0,1-2.56-.13,4.49,4.49,0,0,0-4.84,3.49,5.08,5.08,0,0,1-.16.55c-1,2.34-4.37,3.26-7.48,2a7.13,7.13,0,0,1-3.67-3.22,4.15,4.15,0,0,1-.29-3.43,3.45,3.45,0,0,1,.76-1.14,4.49,4.49,0,0,0,.12-6.17C146.05,119.07,144.21,105,149.42,92.13Z"/><path d="M160.09,121.83a2,2,0,1,0,1.76-3.59,10.86,10.86,0,0,1-5-14.53,2,2,0,1,0-3.59-1.76,14.86,14.86,0,0,0,6.83,19.88Z"/><path d="M108.33,141.87a8.95,8.95,0,1,0,8.94,8.94A9,9,0,0,0,108.33,141.87Zm0,13.89a4.95,4.95,0,1,1,4.94-4.95A5,5,0,0,1,108.33,155.76Z"/><path d="M163.39,48.26A10.44,10.44,0,1,0,153,37.82,10.45,10.45,0,0,0,163.39,48.26Zm0-16.87A6.44,6.44,0,1,1,157,37.82,6.44,6.44,0,0,1,163.39,31.39Z"/><path d="M3.33,123.53a11.25,11.25,0,1,0,11.24-11.24A11.26,11.26,0,0,0,3.33,123.53Zm18.49,0a7.25,7.25,0,1,1-7.25-7.24A7.26,7.26,0,0,1,21.82,123.53Z"/><path d="M205.26,140.7a6.3,6.3,0,1,0,6.3,6.3A6.31,6.31,0,0,0,205.26,140.7Zm0,8.6a2.3,2.3,0,1,1,2.3-2.3A2.3,2.3,0,0,1,205.26,149.3Z"/><path d="M76,29.73a6.3,6.3,0,1,0-6.3-6.3A6.31,6.31,0,0,0,76,29.73Zm0-8.6a2.3,2.3,0,1,1-2.3,2.3A2.3,2.3,0,0,1,76,21.13Z"/><path d="M108.92,93a4.51,4.51,0,0,0,2.52.8,4.46,4.46,0,0,0,1.29-.21,4.18,4.18,0,0,1-3.81-.59c.6,10.44,2.61,20.3,6.38,27.94a2,2,0,0,0,3.59-1.77c-3.4-6.89-5.26-16-5.88-25.66a4.39,4.39,0,0,0,1-.55c43-30.82,35.08-57.69,22.32-84.77a4.5,4.5,0,0,0-6.09-2.11c-20.77,10.4-33.07,23.46-36.55,38.8C89.54,63.39,99.11,80.75,107.89,92A4.37,4.37,0,0,0,108.92,93Zm-6.4-46.13c2.63-11.62,12-21.89,27.71-30.59C139,35.39,146,56.91,112.83,82.64c.39-14.59,3.25-29.38,7.76-39.65a2,2,0,0,0-3.67-1.61c-4.2,9.58-7.07,22.79-7.93,36.3C103.8,68.8,100,57.91,102.52,46.85Z"/></g></g></svg>