<?xml version="1.0" ?><svg data-name="Layer 1" id="Layer_1" viewBox="0 0 512 512" xmlns="http://www.w3.org/2000/svg"><title/><path d="M404.22,221.2a4.89,4.89,0,0,0,.35-.73,6.25,6.25,0,0,0,.43-3.27s0-.06,0-.1c-3.73-21.44-13.95-38.11-30.37-49.54C339.36,143,285.08,149.7,263.39,153.73c-.32.05-.65,0-1,.08V138.65c.79,0,1.63.08,2.41.08,74.84,0,87.17-57.89,87.29-58.5a6.42,6.42,0,0,0-5.88-7.64c-46.85-3-71.25,14.7-83.82,31.38V85.77a6.42,6.42,0,1,0-12.83,0v68c-.33-.05-.66,0-1-.08-21.69-4-76-10.7-111.25,13.83C120.94,179,110.72,195.66,107,217.1c0,0,0,.07,0,.1a6.36,6.36,0,0,0,.42,3.27,6.28,6.28,0,0,0,.36.74,7.16,7.16,0,0,0,.43.88,6.48,6.48,0,0,0,1.63,1.43c.07,0,.08.12.15.16s0,0,.05,0a6.94,6.94,0,0,0,7.17-.4c12.69-9.69,34.32-21.23,65.31-21.23,2.19,0,4.25.11,6.31.21,5.85,9.44,24.13,43.54,24.13,101.1,0,55.18-8.31,83.55-11.61,92.64a243.34,243.34,0,0,1-43.12-.83,6.06,6.06,0,0,0-3.42.66,4.32,4.32,0,0,0-.56.3,6.1,6.1,0,0,0-2.37,2.46l0,0c0,.05,0,.09,0,.13a6.67,6.67,0,0,0-.66,2.14,6.78,6.78,0,0,0,.1,1,4.45,4.45,0,0,0,.08.81,6.15,6.15,0,0,0,1.36,3s0,.07,0,.1c19.12,21.56,40.85,33.92,59.62,33.92a62,62,0,0,0,31.79-8.4,23.46,23.46,0,0,1,23.68,0,62,62,0,0,0,31.8,8.4c18.77,0,40.5-12.36,59.61-33.92,0,0,0-.07.05-.1a6.33,6.33,0,0,0,1.36-3,7.4,7.4,0,0,0,.08-.81,5.66,5.66,0,0,0,.09-1,6.43,6.43,0,0,0-.64-2.06c0-.07,0-.14,0-.21l0,0a6.27,6.27,0,0,0-2.33-2.38,5.19,5.19,0,0,0-.66-.35,6.24,6.24,0,0,0-3.35-.67,243.46,243.46,0,0,1-43.13.83c-3.31-9.12-11.6-37.49-11.6-92.64,0-57.55,18.27-91.65,24.12-101.1,2.07-.1,4.12-.21,6.31-.21,31,0,52.62,11.54,65.31,21.23a6.12,6.12,0,0,0,3.17,1.17,6.61,6.61,0,0,0,.76.05,6.35,6.35,0,0,0,3.24-.82s0,0,.05,0,.08-.12.15-.16a6.48,6.48,0,0,0,1.63-1.43A7.29,7.29,0,0,0,404.22,221.2ZM337.05,85.08c-5.75,13.48-23.44,40.81-72.32,40.81h-.3C269.56,112.34,286.21,84.05,337.05,85.08ZM299.64,426.91a49.28,49.28,0,0,1-25.31-6.64,36.27,36.27,0,0,0-36.65,0,49.33,49.33,0,0,1-25.31,6.64c-11.32,0-24.83-6.39-37.88-17.6,1.55.07,3.15.07,4.73.12s3,.1,4.52.11c3.4,0,6.81,0,10.23-.13.73,0,1.45,0,2.17-.05,3.22-.15,6.42-.41,9.61-.73h0c.9-.09,1.81-.17,2.71-.27,1.1-.13,2.16-.33,3.25-.47,3-.41,5.93-.88,8.84-1.47,1.37-.28,2.7-.61,4-.93,2.6-.62,5.14-1.32,7.63-2.12,1.34-.42,2.67-.86,4-1.33,2.51-.93,4.91-2,7.27-3.12,1.07-.52,2.19-1,3.23-1.55a62.82,62.82,0,0,0,9.28-6,63.26,63.26,0,0,0,7.66,5.15c.93.54,1.93,1,2.9,1.48,1.82.95,3.66,1.87,5.6,2.68,1.21.51,2.45.95,3.7,1.41,1.8.66,3.61,1.29,5.48,1.85,1.37.41,2.75.79,4.16,1.14q2.75.7,5.57,1.29c1.46.3,2.92.6,4.41.85,1.91.33,3.84.59,5.78.84,1.48.19,3,.41,4.46.56,2.11.22,4.24.36,6.37.5,1.33.08,2.64.21,4,.27,3.26.15,6.52.22,9.76.22h.24c3.86,0,7.69-.09,11.46-.27C324.46,420.52,311,426.91,299.64,426.91ZM286.21,303.38c0,48.18,6.1,76.77,10.33,90.84-14.14-2.52-27.26-7.26-36-16a6.41,6.41,0,0,0-9.07,0c-8.75,8.74-21.87,13.48-36,16,4.23-14.07,10.34-42.65,10.34-90.84,0-49.7-12.76-82.82-21.21-99.32,33,6.13,45.38,24.67,46,25.58a6.42,6.42,0,0,0,10.89,0c.15-.23,12.54-19.3,46-25.56C299,220.6,286.21,253.71,286.21,303.38Zm35.58-113.75a6.32,6.32,0,0,0-4.43.22c-33.94,2.92-52.93,17.48-61.36,26.3-8.43-8.82-27.42-23.38-61.35-26.3a6.32,6.32,0,0,0-4.43-.22c-2.56-.14-5-.4-7.7-.4a130.78,130.78,0,0,0-15.73,1c-1.37.17-2.69.36-4,.56q-6,.93-11.56,2.32c-.78.2-1.61.35-2.37.56a116.07,116.07,0,0,0-12.07,4c-1,.38-1.83.78-2.76,1.17-2.94,1.26-5.72,2.56-8.34,3.94-.47.24-1,.46-1.51.71a57.69,57.69,0,0,1,20.53-25.48c31.3-21.78,81.46-15.48,101.59-11.75a53.16,53.16,0,0,0,19.44,0c20.11-3.73,70.28-10,101.59,11.75a57.66,57.66,0,0,1,20.53,25.47c-.48-.26-1.08-.48-1.57-.74q-3.88-2-8.27-3.9c-.93-.39-1.81-.8-2.77-1.18a118.49,118.49,0,0,0-12.07-4c-.75-.21-1.58-.36-2.35-.56q-5.52-1.4-11.58-2.32c-1.33-.2-2.64-.39-4-.56a130.81,130.81,0,0,0-15.74-1C326.76,189.23,324.34,189.49,321.79,189.63Z"/></svg>