<?xml version="1.0" ?><svg viewBox="0 0 64 64" xmlns="http://www.w3.org/2000/svg"><title/><g data-name="Layer 7" id="Layer_7"><path d="M26,26a2,2,0,0,0,1,1.72V34h2V27.72A2,2,0,0,0,30,26V22H26Z"/><path d="M34,22v4a2,2,0,0,0,1,1.72V34h2V27.72A2,2,0,0,0,38,26V22Z"/><path d="M50,25h2a5,5,0,0,1,4.9,4H45.1A5,5,0,0,1,50,25Zm-7,6H59v2H43ZM12,25h2a5,5,0,0,1,4.9,4H7.1A5,5,0,0,1,12,25ZM5,31H21v2H5Z"/><polygon points="62 1 2 1 2 3 7.5 3 12 12 16.5 3 17.5 3 22 12 26.5 3 27.5 3 32 12 36.5 3 37.5 3 42 12 46.5 3 47.5 3 52 12 56.5 3 62 3 62 1"/><path d="M3,35H6.68l5.55,4H3ZM9,61H5V41H9Zm2-16V41h4l5.56,4Zm21,5.77L24,45h0L10.1,35H53.9L40,45h0ZM43.43,45,49,41h4v4ZM59,61H55V41h4Zm2-22H51.77l5.55-4H61Z"/></g></svg>