<?xml version="1.0" ?><svg data-name="Layer 1" id="Layer_1" viewBox="0 0 64 64" xmlns="http://www.w3.org/2000/svg"><defs><style>.cls-1{fill:#e53a35;}.cls-2{fill:#d32e2e;}.cls-3{fill:#6d4d42;}.cls-4{fill:#42a047;}.cls-5{fill:#378e43;}.cls-6{fill:#e57373;}.cls-7{fill:#ef5451;}</style></defs><path class="cls-1" d="M32,38a13.847,13.847,0,0,0,1.58,6.44,15.9887,15.9887,0,1,1-22-22.02A10.1411,10.1411,0,0,0,16,24c0,3,4,8,4,8s4-5,4-8a10.1411,10.1411,0,0,0,4.42-1.58,15.9935,15.9935,0,0,1,6.3,7.32A13.907,13.907,0,0,0,32,38Z"/><path class="cls-2" d="M32,38a13.847,13.847,0,0,0,1.58,6.44A15.9894,15.9894,0,0,1,20,52V32s4-5,4-8a10.1411,10.1411,0,0,0,4.42-1.58,15.9935,15.9935,0,0,1,6.3,7.32A13.907,13.907,0,0,0,32,38Z"/><path class="cls-3" d="M20,21a1,1,0,0,1-1-1V18.585A7.5935,7.5935,0,0,1,26.585,11H28a1,1,0,0,1,0,2H26.585A5.5916,5.5916,0,0,0,21,18.585V20A1,1,0,0,1,20,21Z"/><path class="cls-4" d="M24,24c0,3-4,8-4,8s-4-5-4-8a4,4,0,0,1,8,0Z"/><path class="cls-5" d="M24,24c0,3-4,8-4,8V20A3.9989,3.9989,0,0,1,24,24Z"/><path class="cls-4" d="M24,16a4,4,0,0,0-4,4,4,4,0,0,1,4,4c3,0,8-4,8-4S27,16,24,16Z"/><path class="cls-5" d="M20,20a4,4,0,0,0-4-4c-3,0-8,4-8,4s5,4,8,4A4,4,0,0,1,20,20Z"/><circle class="cls-1" cx="46" cy="38" r="14"/><path class="cls-2" d="M60,38A14.0025,14.0025,0,0,1,46,52V24A14.0025,14.0025,0,0,1,60,38Z"/><path class="cls-6" d="M44,42.874a2.9371,2.9371,0,0,0-.84-2.0768,3.9524,3.9524,0,0,1,0-5.5945A2.9371,2.9371,0,0,0,44,33.1259h0A3.0059,3.0059,0,0,0,38.8983,30.96a9.9985,9.9985,0,0,0,0,14.0794A3.0059,3.0059,0,0,0,44,42.8741Z"/><path class="cls-7" d="M48,33.1259h0a2.9371,2.9371,0,0,0,.84,2.0768,3.9524,3.9524,0,0,1,0,5.5945A2.9371,2.9371,0,0,0,48,42.874v0A3.0059,3.0059,0,0,0,53.1017,45.04a9.9985,9.9985,0,0,0,0-14.0794A3.0059,3.0059,0,0,0,48,33.1259Z"/><path class="cls-5" d="M24,16c3,0,8,4,8,4H20A3.9989,3.9989,0,0,1,24,16Z"/><path class="cls-4" d="M16,16c-3,0-8,4-8,4H20A3.9989,3.9989,0,0,0,16,16Z"/><path d="M20,47A11.0125,11.0125,0,0,1,9,36a1,1,0,0,0-2,0A13.0147,13.0147,0,0,0,20,49,1,1,0,0,0,20,47Z"/><path d="M46,23a14.947,14.947,0,0,0-11.067,4.91,16.9388,16.9388,0,0,0-4.6746-5.4369c1.6282-1.2152,3.5956-1.9325,2.3662-3.2545-.7823-.6584-7.3513-5.7345-10.6486-3.7819A5.582,5.582,0,0,1,26.585,13H28a1,1,0,0,0,0-2c-3.905-.3637-7.4874,1.586-8.6515,5.3132-3.5883-3.7373-10.5469,1.8-11.973,2.9057-1.23,1.3232.7374,2.0377,2.3658,3.2542A16.8751,16.8751,0,0,0,3,36c.0169,16.1753,20.7615,23.1683,30.5066,10.2846C41.6744,58.5117,60.8761,52.8973,61,38A15.0167,15.0167,0,0,0,46,23ZM30.334,20c-.6763.482-1.5239,1.041-2.4072,1.5469h0a12.5,12.5,0,0,1-3.054,1.3312,5.0835,5.0835,0,0,0-3.7439-3.7492C22.7617,14.8829,27.6286,18.1014,30.334,20ZM17,24a3,3,0,0,1,6,0c0,1.7421-1.7617,4.5966-3,6.3339C18.7617,28.5967,17,25.7422,17,24Zm-1-7a3.0064,3.0064,0,0,1,2.8711,2.1289,5.0837,5.0837,0,0,0-3.7439,3.7492,12.4981,12.4981,0,0,1-3.054-1.3312h0C11.19,21.041,10.3423,20.482,9.666,20,11.4033,18.7617,14.2573,17,16,17ZM32.4277,44.3711A14.9051,14.9051,0,0,1,20,51C5.2977,50.9576-.5746,31.8082,11.6133,23.5828a12.65,12.65,0,0,0,3.4736,1.33,18.7047,18.7047,0,0,0,3.35,6.6754c.4574.5251.7707,1.4007,1.5633,1.4115.7929-.0105,1.1055-.8868,1.5633-1.4115a18.7047,18.7047,0,0,0,3.35-6.6754,12.6486,12.6486,0,0,0,3.4736-1.33,14.9762,14.9762,0,0,1,5.18,6.0346A15.0705,15.0705,0,0,0,32.4277,44.3711ZM46,51a13,13,0,0,1,0-26C63.2408,25.7114,63.2464,50.2864,46,51Z"/><path d="M45,33.126a4.0234,4.0234,0,0,0-2.5068-3.7266C37.7667,27.6735,34.9753,34.19,35,38c-.0344,3.8069,2.788,10.337,7.4932,8.6008A4.0236,4.0236,0,0,0,45,42.874a3.9136,3.9136,0,0,0-1.1313-2.7832,2.9512,2.9512,0,0,1,0-4.1826A3.9109,3.9109,0,0,0,45,33.126Zm-2.5483,1.3711a4.9752,4.9752,0,0,0-.0005,7.0049,2.0355,2.0355,0,0,1-.72,3.2489C38.8272,45.8008,36.88,40.2226,37,38a8.9457,8.9457,0,0,1,2.6084-6.336,1.8751,1.8751,0,0,1,1.3442-.5743A2.0409,2.0409,0,0,1,42.4517,34.4971Z"/><path d="M49.5068,29.3994a4.0377,4.0377,0,0,0-1.3754,6.51,2.9513,2.9513,0,0,1-.0005,4.1826A3.9109,3.9109,0,0,0,47,42.874c-.1179,3.4138,4.4376,5.4314,6.8116,2.87a11.0508,11.0508,0,0,0,0-15.4881A3.8869,3.8869,0,0,0,49.5068,29.3994Zm2.8848,14.9365A2.0024,2.0024,0,0,1,49,42.874a1.95,1.95,0,0,1,.5483-1.3711,4.9516,4.9516,0,0,0,.0005-7.0049,2.0355,2.0355,0,0,1,.72-3.2489,1.8925,1.8925,0,0,1,2.123.415A9.0421,9.0421,0,0,1,52.3916,44.3359Z"/></svg>