<?xml version="1.0" ?><svg style="enable-background:new 0 0 100 100;" version="1.1" viewBox="0 0 100 100" xml:space="preserve" xmlns="http://www.w3.org/2000/svg" xmlns:xlink="http://www.w3.org/1999/xlink"><style type="text/css">
	.st0{display:none;}
	.st1{fill:none;stroke:#000000;stroke-linecap:round;stroke-linejoin:round;stroke-miterlimit:10;}
</style><g id="Layer_1"/><g id="Слой_9"/><g id="Слой_39"/><g id="Слой_38"/><g id="Слой_37"/><g id="Слой_36"/><g id="Слой_35"/><g id="Слой_34"/><g id="Слой_33"/><g id="Слой_32"/><g id="Слой_31"/><g id="Слой_30"/><g id="Слой_29"/><g id="Слой_28"/><g id="Слой_25"/><g id="Слой_27"/><g id="Слой_26"/><g id="Слой_24"/><g id="Слой_23"/><g id="Слой_22"/><g id="Слой_4"/><g id="Слой_5"/><g id="Слой_6"/><g id="Слой_7"/><g id="Слой_8"/><g id="Слой_10"/><g id="Слой_11"/><g id="Слой_12"/><g id="Слой_13"/><g id="Слой_14"/><g id="Слой_40"/><g id="Слой_15"/><g id="Слой_16"/><g id="Слой_17"/><g id="Слой_18"/><g id="Слой_19"/><g id="Слой_20"/><g id="Слой_21"/><g id="Слой_41"/><g id="Слой_42"/><g id="Слой_43"/><g id="Слой_44"><path d="M76.61,54.191c-0.22-4.2-1.06-8.25-2.25-10.82c-1.79-3.9-4.79-6.83-8.68-8.49c-1.87-0.8-3.89-1.2-6.04-1.2   c-2.63,0-5.46,0.6-8.46,1.8c-0.03,0.02-0.06,0.02-0.09,0.03c-7.52,1.46-12.54,6.68-13.42,13.96c-0.68,5.6,1.42,11.68,6.41,18.59   c1.59,2.19,3.24,4.28,4.84,6.29c2.42,3.05,4.92,6.2,7.15,9.7c1.46,2.29,2.98,4.86,3.84,6.4c1.11,1.99,2.38,3.35,3.4,3.64   c1.25,0.35,2.51,0.2,3.85-0.47c1.3-0.65,2.46-2.48,3.11-3.98C77.59,72.921,76.85,58.831,76.61,54.191z M46.08,58.501   c-0.67,0.3-1.18,0.93-1.34,1.64c-0.05,0.23-0.26,0.39-0.49,0.39c-0.03,0-0.07-0.01-0.11-0.02c-0.27-0.06-0.44-0.33-0.38-0.6   c0.24-1,0.96-1.89,1.9-2.32c0.26-0.11,0.55,0,0.67,0.25C46.44,58.091,46.33,58.391,46.08,58.501z M45.2,44.781   c-0.1,0.11-0.23,0.16-0.37,0.16c-0.12,0-0.24-0.04-0.33-0.13c-0.21-0.19-0.22-0.5-0.04-0.71c1.53-1.67,3.58-2.91,5.76-3.51   c0.27-0.07,0.55,0.09,0.62,0.36c0.07,0.26-0.09,0.54-0.35,0.61C48.48,42.101,46.6,43.251,45.2,44.781z M54.4,71.691   c-0.77,0.33-1.4,0.95-1.72,1.72c-0.08,0.19-0.27,0.31-0.46,0.31c-0.07,0-0.13-0.02-0.2-0.04c-0.25-0.11-0.37-0.41-0.26-0.66   c0.42-1,1.24-1.82,2.25-2.25c0.25-0.11,0.55,0.01,0.65,0.27C54.77,71.291,54.65,71.581,54.4,71.691z M67.56,48.841   c-1.4-0.29-2.87-0.24-4.26,0.16c-0.04,0.01-0.09,0.02-0.13,0.02c-0.22,0-0.42-0.14-0.48-0.36c-0.08-0.27,0.07-0.55,0.34-0.62   c1.53-0.44,3.17-0.5,4.74-0.17c0.27,0.05,0.44,0.32,0.39,0.59C68.1,48.731,67.84,48.901,67.56,48.841z"/><path d="M73.69,27.651c-0.09,0.29-0.25,0.61-0.47,0.65c-0.21,0.04-0.51-0.17-0.83-0.39c-1.06-0.76-2.3-1.28-3.58-1.51   c-1.02-0.18-1.8,0.07-2.14,0.7c-0.2,0.37-0.18,0.78-0.17,1.1c0.01,0.25,0.02,0.48-0.06,0.59c-0.09,0.11-0.35,0.11-0.56,0   c-0.23-0.12-0.43-0.33-0.64-0.56l-0.19-0.21c-1.9-1.95-5.12-2.41-7.49-1.07c-2.33,1.32-3.58,3.98-3.1,6.42   c-0.91,0.23-1.84,0.53-2.79,0.87c-0.25-2.06-1.23-4.34-2.64-6.36c-0.01-0.03-0.01-0.06-0.02-0.09c-1-2.31-1.98-4.79-2.15-7.48   c-0.17-2.86,0.64-5.49,2.24-7.22c0.21-0.22,0.46-0.46,0.73-0.54c0.18-0.06,0.41-0.01,0.48,0.11c0.04,0.07,0.06,0.21,0.08,0.36   c0.03,0.23,0.07,0.53,0.26,0.8c0.19,0.26,0.48,0.44,0.82,0.48c0.41,0.06,0.87-0.08,1.2-0.34c0.42-0.35,0.63-0.84,0.82-1.27   l0.06-0.13c1.12-2.49,3.41-4.57,6.27-5.71c2.52-1,5.43-1.31,8.68-0.92c0.99,0.12,2.03,0.31,2.83,0.89   c0.68,0.49,1.23,1.42,0.97,2.27c-0.31,1-1.54,1.41-2.06,1.54c-0.39,0.1-0.79,0.17-1.2,0.23c-0.65,0.11-1.33,0.21-1.97,0.46   c-0.28,0.11-0.67,0.3-0.86,0.71c-0.11,0.26-0.12,0.56,0,0.84c0.14,0.36,0.48,0.68,0.88,0.84c0.19,0.08,0.39,0.13,0.59,0.18   c0.22,0.05,0.44,0.1,0.59,0.2c0.25,0.15,0.33,0.42,0.35,0.61c0.05,0.42-0.11,0.9-0.4,1.19c-0.6,0.59-1.57,0.78-2.44,0.9l-0.11,0.01   c-0.97,0.14-2.06,0.3-2.92,0.95c-0.02,0.02-0.04,0.05-0.06,0.07c-2.68,0.17-5.3,1.19-7.35,2.95c-0.19,0.16-0.22,0.42-0.09,0.63   c0.14,0.21,0.42,0.29,0.65,0.19l0.28-0.13c0.15-0.06,0.25-0.18,0.29-0.32c2.22-1.7,5.04-2.54,7.84-2.32c3,0.23,5.85,1.67,7.81,3.95   C72.79,23.541,74.27,25.571,73.69,27.651z"/><path d="M43.45,23.941c-3.9-2.17-9.15-2.86-15.19-2c-2.67,0.38-5.14,1.45-7.15,3.11c-0.53,0.45-1.24,1.11-1.18,1.79   c0.04,0.54,0.59,0.97,1.11,1.11c0.39,0.12,0.74,0.19,1.07,0.23c0.38,0.06,0.71,0.3,0.87,0.65c0.16,0.35,0.13,0.76-0.09,1.08   c-1.68,2.53-2.1,6.01-1.14,9.29c0.92,3.15,2.99,6.15,6.17,8.92c0.25,0.22,0.54,0.43,0.75,0.41c0.45-0.05,0.55-1.01,0.58-1.3   c0.18-2.43,0.51-4.89,0.95-7.29c0.16-0.87,0.64-1.37,1.23-1.34c0.48,0.02,0.87,0.38,1.08,0.98c0.12,0.35,0.19,0.7,0.25,1.03   c0.08,0.4,0.16,0.78,0.31,1.11c0.21,0.49,0.73,0.92,1.15,0.78c0.37-0.12,0.59-0.64,0.77-1.19c0.69-2.04,1.47-4.19,2.77-6   c1.48-2.06,3.52-3.4,5.6-3.69c2.49-0.34,5.02,0.98,5.88,3.08c0.03,0.07,0.04,0.14,0.03,0.21c0.47-0.12,0.95-0.24,1.43-0.34   C50.34,30.721,47.12,25.981,43.45,23.941z M44.52,27.451c-0.12,0.25-0.42,0.35-0.66,0.24c-2.85-1.31-6.35-1.25-9.14,0.15   c-0.08,0.04-0.15,0.05-0.23,0.05c-0.18,0-0.36-0.1-0.45-0.27c-0.12-0.25-0.02-0.55,0.23-0.67c3.1-1.56,6.85-1.62,10-0.17   C44.53,26.901,44.63,27.191,44.52,27.451z"/><path d="M45.87,20.371c-0.07-1.06,0-2.09,0.18-3.06c-0.09-0.08-0.16-0.19-0.18-0.31c-0.35-2.32-1.46-4.51-3.13-6.17   c-1.66-1.65-3.85-2.75-6.18-3.09c-0.47-0.07-1.03-0.12-1.52,0.03c-0.44,0.14-0.78,0.45-0.87,0.81c-0.03,0.14-0.03,0.32-0.04,0.5   c0,0.39-0.01,0.87-0.33,1.27c-0.56,0.69-1.54,0.53-2.06,0.45c-4.13-0.68-8.48,0.3-11.92,2.69c-1.5,1.05-2.48,2.14-3.01,3.35   c-0.14,0.33-0.44,1.15-0.08,1.7c0.27,0.41,0.81,0.54,1.26,0.54c0.52-0.01,1.05-0.18,1.6-0.36l0.14-0.04   c1.92-0.63,3.92-1.09,5.92-1.36c0.28-0.04,1.01-0.14,1.44,0.37c0.2,0.22,0.28,0.52,0.25,0.82c-0.05,0.41-0.31,0.84-0.69,1.12   c-0.13,0.1-0.28,0.19-0.43,0.27c-0.24,0.15-0.46,0.28-0.57,0.45c-0.12,0.19-0.1,0.48,0.05,0.66c0.09,0.11,0.37,0.37,0.78,0.26h0.03   c0.53-0.13,1.07-0.24,1.61-0.32c6.26-0.89,11.73-0.16,15.81,2.11c1.07,0.6,2.11,1.41,3.05,2.36   C46.42,23.831,45.97,22.161,45.87,20.371z M43.26,20.031c-0.09,0.07-0.2,0.11-0.3,0.11c-0.15,0-0.3-0.07-0.4-0.19   c-1.45-1.85-3.34-3.33-5.48-4.28c-0.25-0.12-0.37-0.41-0.26-0.66c0.12-0.26,0.41-0.37,0.67-0.26c2.28,1.02,4.31,2.61,5.86,4.58   C43.52,19.551,43.48,19.861,43.26,20.031z"/></g></svg>